# xmcd
#
# Track frame offsets: 
#        150
#        19262
#        27947
#        45017
#        59425
#        76510
#        88300
#        102557
#        118460
#        135250
#        146450
#        157425
#
# Disc length: 2333 seconds
#
# Revision: 5
# Processed by: cddbd v1.5.2PL0 Copyright (c) Steve Scherf et al.
# Submitted via: ExactAudioCopy v1.3
#
DISCID=9e091b0c
DTITLE=Rice, Rice, Hillman and Pedersen - Out of the Woodwork (1997)
DYEAR=1997
DGENRE=Bluegrass
TTITLE0=Hard Times
TTITLE1=Lord, Won't You Help Me?
TTITLE2=Somewhere on the Road Tonight
TTITLE3=No One Else
TTITLE4=Streetcorner Stranger
TTITLE5=So Begins the Task
TTITLE6=Dimming of the Day
TTITLE7=Just Me and You
TTITLE8=Do Right Woman
TTITLE9=Change Coming Down
TTITLE10=Story of Love
TTITLE11=Only Passing Through
EXTD=
EXTT0=
EXTT1=
EXTT2=
EXTT3=
EXTT4=
EXTT5=
EXTT6=
EXTT7=
EXTT8=
EXTT9=
EXTT10=
EXTT11=
PLAYORDER=
